<svg id="Capa_1" data-name="Capa 1" xmlns="http://www.w3.org/2000/svg" viewBox="0 0 1887.64 595.9"><defs><style>.cls-1{font-size:79.76px;fill:#ee7212;font-family:Montserrat-Regular, Montserrat;}.cls-2{letter-spacing:-0.02em;}.cls-3,.cls-4{fill:#0f4b81;}.cls-4{font-size:535.16px;font-family:Aileron-Regular, Aileron;letter-spacing:-0.02em;}.cls-5{letter-spacing:-0.04em;}.cls-6{letter-spacing:-0.04em;}.cls-7{fill:#ef6a00;}</style></defs><text class="cls-1" transform="translate(469.75 575) scale(0.92 1)">Sis<tspan class="cls-2" x="109.52" y="0">t</tspan><tspan x="140.38" y="0">ema de </tspan><tspan class="cls-3" x="464.31" y="0">Negocios</tspan></text><text class="cls-4" transform="translate(426.45 466.74) rotate(0.11) scale(1.01 1)">Us<tspan class="cls-5" x="593.49" y="0">qa</tspan><tspan class="cls-6" x="1159.68" y="0">y</tspan></text><path class="cls-7" d="M86,371.3c-.12.2-.24.4-.37.6-17.74,29-23.17,59.59-24.52,90.73-.6,13.77-.39,27.65-.1,41.53.08,3.76.17,7.53.24,11.28,0,1.83.07,3.65.11,5.47.89,49.54-12,66.89-20.23,72.91a6.2,6.2,0,0,1-9.34-2.41c-6.78-15-23.09-59.53-11.61-120.17C21.33,465,22.8,458.56,24.63,452h0c.59-2.19,1.24-4.41,1.92-6.64A224.2,224.2,0,0,1,40.47,410.4,205.49,205.49,0,0,1,69,367.67l4-3.89c2.55-22.2,13.29-47.91,13.29-47.91,11.37-27.91,39.91-67.4,83.12-90.38a21.57,21.57,0,0,1,21.75.73c25.49,16.35,32.57,43,30.14,63.84-1.77,15.13-8.8,27-13,33A74.66,74.66,0,0,0,196,354.41c-11.84,113.5,124.48,151.86,177.74,76.7C420.25,365.44,376,312.24,366,301.68a.77.77,0,0,0-1.31.71c4.7,24.34-5.43,47.36-9,54.4a.76.76,0,0,1-1.43-.28C344.82,275,287.26,236,268.11,225.11a.84.84,0,0,1,.65-1.53c68.53,17.74,106.18,47,113.68,53.27a.69.69,0,0,0,1.12-.64l-3.65-23.93a.66.66,0,0,1,1-.67c63.17,39.17,107.15,141.1,45.87,235.22-52.77,81.05-142.46,79.22-168,75.08-61.48-10-102.59-55.44-102.6-55.45h0c-40.36-48.88-46.39-97.41-42.58-133.25a14.71,14.71,0,0,0-.85-8.75,14.49,14.49,0,0,0-4.54-5.69,2,2,0,0,0-3.09,1c-26.22,79.09,8.89,129.7,46.26,181.75,37.07,51.64,37.29,77.68,34.29,88.45a5.44,5.44,0,0,1-8.2,3.08c-17.79-11.57-76.09-55.24-93.62-140.13-9.35-45.32-2.34-87.51,8-117.82l.31-.89A3.45,3.45,0,0,0,86,371.24Z" transform="translate(-16.17 -94.79)"/></svg>