<?xml version="1.0" encoding="utf-8"?>
<!-- Generator: Adobe Illustrator 24.0.2, SVG Export Plug-In . SVG Version: 6.00 Build 0)  -->
<svg version="1.1" id="Capa_1" xmlns="http://www.w3.org/2000/svg" xmlns:xlink="http://www.w3.org/1999/xlink" x="0px" y="0px"
	 viewBox="0 0 1080 1080" style="enable-background:new 0 0 1080 1080;" xml:space="preserve">
<style type="text/css">
	.st0{fill:#FFFFFF;}
</style>
<g>
	<path class="st0" d="M346.66,614.38c-1.7-0.64-3.01-1.49-3.94-2.55l1.03-2.2c0.9,0.98,2.1,1.77,3.6,2.37
		c1.5,0.6,3.04,0.91,4.63,0.91c2.23,0,3.91-0.44,5.02-1.33c1.12-0.89,1.67-2.04,1.67-3.45c0-1.08-0.3-1.94-0.91-2.58
		c-0.61-0.64-1.35-1.14-2.23-1.48c-0.88-0.35-2.1-0.73-3.67-1.14c-1.88-0.51-3.37-1.01-4.49-1.49c-1.12-0.48-2.07-1.2-2.87-2.18
		c-0.8-0.98-1.19-2.3-1.19-3.97c0-1.36,0.33-2.6,1-3.72c0.67-1.12,1.69-2.01,3.06-2.68c1.38-0.67,3.09-1,5.13-1
		c1.42,0,2.82,0.21,4.19,0.64c1.37,0.42,2.55,1.01,3.54,1.75l-0.89,2.28c-1.05-0.75-2.16-1.3-3.35-1.68
		c-1.19-0.37-2.35-0.56-3.49-0.56c-2.19,0-3.83,0.46-4.93,1.37c-1.1,0.91-1.66,2.09-1.66,3.53c0,1.08,0.3,1.95,0.91,2.6
		c0.61,0.66,1.37,1.16,2.28,1.5c0.92,0.35,2.14,0.73,3.69,1.14c1.83,0.49,3.31,0.97,4.44,1.45c1.13,0.48,2.08,1.2,2.87,2.16
		s1.18,2.27,1.18,3.92c0,1.36-0.34,2.6-1.02,3.72c-0.68,1.12-1.72,2-3.12,2.66c-1.4,0.66-3.12,0.98-5.17,0.98
		C350.14,615.34,348.36,615.02,346.66,614.38z"/>
	<path class="st0" d="M366.45,589.81c-0.36-0.39-0.54-0.85-0.54-1.39c0-0.51,0.18-0.96,0.54-1.35s0.79-0.58,1.32-0.58
		c0.52,0,0.96,0.19,1.32,0.56c0.36,0.37,0.53,0.82,0.53,1.33c0,0.57-0.18,1.04-0.53,1.43c-0.36,0.39-0.8,0.58-1.32,0.58
		C367.25,590.39,366.81,590.2,366.45,589.81z M366.49,594.83h2.53v20.29h-2.53V594.83z"/>
	<path class="st0" d="M376.73,614.59c-1.39-0.48-2.48-1.07-3.26-1.79l1.14-2.16c0.78,0.67,1.77,1.21,2.96,1.64
		c1.19,0.42,2.42,0.64,3.71,0.64c1.71,0,2.97-0.29,3.79-0.87c0.82-0.58,1.23-1.39,1.23-2.45c0-0.75-0.23-1.33-0.68-1.75
		c-0.45-0.42-1.02-0.75-1.71-0.96c-0.69-0.22-1.6-0.43-2.74-0.64c-1.52-0.31-2.74-0.62-3.67-0.94c-0.93-0.32-1.72-0.87-2.37-1.64
		s-0.98-1.84-0.98-3.2c0-1.7,0.65-3.08,1.96-4.17c1.31-1.08,3.12-1.62,5.45-1.62c1.21,0,2.42,0.17,3.63,0.52
		c1.21,0.35,2.21,0.8,2.99,1.37l-1.1,2.2c-1.54-1.16-3.38-1.74-5.52-1.74c-1.62,0-2.83,0.31-3.65,0.93s-1.23,1.43-1.23,2.43
		c0,0.77,0.23,1.39,0.7,1.85s1.04,0.8,1.73,1.02c0.69,0.22,1.64,0.44,2.85,0.67c1.5,0.31,2.7,0.62,3.6,0.93
		c0.9,0.31,1.67,0.83,2.32,1.58c0.64,0.75,0.96,1.77,0.96,3.08c0,1.77-0.68,3.18-2.05,4.22c-1.37,1.04-3.26,1.56-5.68,1.56
		C379.58,615.3,378.12,615.07,376.73,614.59z"/>
	<path class="st0" d="M403.37,613.88c-0.47,0.46-1.06,0.82-1.76,1.06c-0.7,0.24-1.43,0.37-2.19,0.37c-1.76,0-3.11-0.51-4.06-1.54
		s-1.42-2.48-1.42-4.36v-12.26h-3.35v-2.31h3.35v-4.44h2.53v4.44h5.7v2.31h-5.7v12.11c0,1.21,0.28,2.13,0.84,2.76
		c0.56,0.63,1.36,0.94,2.4,0.94c0.52,0,1.03-0.09,1.51-0.27c0.49-0.18,0.91-0.44,1.26-0.77L403.37,613.88z"/>
	<path class="st0" d="M423.6,605.82h-15.68c0.14,2.11,0.89,3.81,2.24,5.11c1.35,1.3,3.06,1.95,5.13,1.95c1.16,0,2.23-0.22,3.21-0.67
		c0.97-0.45,1.82-1.11,2.53-1.99l1.43,1.77c-0.83,1.08-1.87,1.9-3.12,2.47s-2.62,0.85-4.12,0.85c-1.92,0-3.63-0.44-5.11-1.33
		c-1.49-0.89-2.64-2.11-3.47-3.68c-0.83-1.57-1.25-3.34-1.25-5.32c0-1.98,0.4-3.75,1.19-5.32c0.79-1.57,1.89-2.79,3.28-3.66
		s2.95-1.31,4.69-1.31c1.73,0,3.29,0.44,4.67,1.31c1.38,0.87,2.46,2.09,3.24,3.64c0.78,1.56,1.18,3.34,1.18,5.34L423.6,605.82z
		 M410.01,598.89c-1.22,1.25-1.92,2.87-2.08,4.88h13.29c-0.17-2.01-0.86-3.63-2.08-4.88s-2.75-1.87-4.58-1.87
		C412.75,597.02,411.23,597.65,410.01,598.89z"/>
	<path class="st0" d="M457.72,596.87c1.34,1.47,2.01,3.63,2.01,6.48v11.76h-2.53v-11.49c0-2.11-0.47-3.72-1.41-4.82
		c-0.94-1.11-2.26-1.66-3.97-1.66c-1.95,0-3.48,0.65-4.6,1.95c-1.12,1.3-1.67,3.09-1.67,5.38v10.64h-2.53v-11.49
		c0-2.11-0.47-3.72-1.41-4.82c-0.94-1.11-2.27-1.66-4.01-1.66c-1.92,0-3.45,0.65-4.58,1.95c-1.13,1.3-1.69,3.09-1.69,5.38v10.64
		h-2.53v-20.29h2.42v3.7c0.66-1.23,1.59-2.19,2.78-2.85c1.19-0.67,2.55-1,4.1-1c1.57,0,2.93,0.36,4.08,1.08
		c1.15,0.72,2.01,1.79,2.58,3.2c0.69-1.34,1.68-2.38,2.97-3.14c1.29-0.76,2.77-1.14,4.44-1.14
		C454.53,594.67,456.38,595.4,457.72,596.87z"/>
	<path class="st0" d="M478.79,596.66c1.31,1.32,1.96,3.29,1.96,5.88v12.57h-2.42v-3.16c-0.57,1.05-1.41,1.88-2.51,2.47
		c-1.1,0.59-2.42,0.89-3.94,0.89c-2.09,0-3.75-0.54-4.99-1.62c-1.24-1.08-1.85-2.51-1.85-4.28c0-1.72,0.58-3.11,1.73-4.17
		c1.15-1.05,2.99-1.58,5.5-1.58h5.95v-1.23c0-1.75-0.45-3.08-1.35-3.99c-0.9-0.91-2.22-1.37-3.96-1.37c-1.19,0-2.33,0.21-3.42,0.64
		c-1.09,0.42-2.03,1.01-2.81,1.75l-1.14-2.04c0.95-0.87,2.09-1.55,3.42-2.02s2.73-0.71,4.2-0.71
		C475.61,594.67,477.49,595.33,478.79,596.66z M475.94,612.08c1.02-0.71,1.78-1.73,2.28-3.07v-3.32h-5.88
		c-3.21,0-4.81,1.21-4.81,3.63c0,1.18,0.42,2.12,1.25,2.8c0.83,0.68,2,1.02,3.49,1.02C473.7,613.15,474.92,612.79,475.94,612.08z"/>
	<path class="st0" d="M514.06,586.49v28.62h-2.42v-4.01c-0.76,1.36-1.76,2.4-3.01,3.12s-2.65,1.08-4.22,1.08
		c-1.76,0-3.35-0.44-4.77-1.31c-1.43-0.87-2.54-2.1-3.35-3.66s-1.21-3.36-1.21-5.36s0.4-3.79,1.21-5.36
		c0.81-1.57,1.92-2.78,3.35-3.64c1.42-0.86,3.02-1.29,4.77-1.29c1.52,0,2.89,0.34,4.12,1.02s2.23,1.68,3.01,2.99v-12.19H514.06z
		 M508.17,611.89c1.06-0.66,1.89-1.59,2.49-2.8c0.61-1.21,0.91-2.58,0.91-4.13s-0.3-2.92-0.91-4.13c-0.61-1.21-1.44-2.14-2.49-2.8
		c-1.06-0.66-2.24-0.98-3.55-0.98c-1.33,0-2.52,0.33-3.58,0.98c-1.06,0.66-1.89,1.59-2.49,2.8c-0.61,1.21-0.91,2.58-0.91,4.13
		s0.3,2.92,0.91,4.13c0.61,1.21,1.44,2.14,2.49,2.8c1.06,0.66,2.25,0.98,3.58,0.98C505.93,612.88,507.11,612.55,508.17,611.89z"/>
	<path class="st0" d="M537.44,605.82h-15.68c0.14,2.11,0.89,3.81,2.24,5.11c1.35,1.3,3.06,1.95,5.13,1.95
		c1.16,0,2.23-0.22,3.21-0.67c0.97-0.45,1.82-1.11,2.53-1.99l1.43,1.77c-0.83,1.08-1.87,1.9-3.12,2.47s-2.62,0.85-4.12,0.85
		c-1.92,0-3.63-0.44-5.11-1.33c-1.49-0.89-2.64-2.11-3.47-3.68c-0.83-1.57-1.25-3.34-1.25-5.32c0-1.98,0.4-3.75,1.19-5.32
		c0.79-1.57,1.89-2.79,3.28-3.66s2.95-1.31,4.69-1.31c1.73,0,3.29,0.44,4.67,1.31c1.38,0.87,2.46,2.09,3.24,3.64
		c0.78,1.56,1.18,3.34,1.18,5.34L537.44,605.82z M523.84,598.89c-1.22,1.25-1.92,2.87-2.08,4.88h13.29
		c-0.17-2.01-0.86-3.63-2.08-4.88s-2.75-1.87-4.58-1.87C526.58,597.02,525.07,597.65,523.84,598.89z"/>
	<path class="st0" d="M573.35,588.11v27h-2.17l-16.03-21.91v21.91h-2.64v-27h2.17l16.07,21.91v-21.91H573.35z"/>
	<path class="st0" d="M597.26,605.82h-15.68c0.14,2.11,0.89,3.81,2.25,5.11c1.35,1.3,3.06,1.95,5.13,1.95
		c1.16,0,2.23-0.22,3.21-0.67c0.97-0.45,1.82-1.11,2.53-1.99l1.42,1.77c-0.83,1.08-1.87,1.9-3.12,2.47s-2.62,0.85-4.12,0.85
		c-1.92,0-3.63-0.44-5.11-1.33s-2.64-2.11-3.47-3.68c-0.83-1.57-1.25-3.34-1.25-5.32c0-1.98,0.4-3.75,1.19-5.32s1.89-2.79,3.28-3.66
		s2.95-1.31,4.69-1.31c1.73,0,3.29,0.44,4.67,1.31c1.38,0.87,2.46,2.09,3.24,3.64s1.18,3.34,1.18,5.34L597.26,605.82z
		 M583.67,598.89c-1.22,1.25-1.92,2.87-2.08,4.88h13.29c-0.17-2.01-0.86-3.63-2.08-4.88c-1.22-1.25-2.75-1.87-4.58-1.87
		C586.4,597.02,584.89,597.65,583.67,598.89z"/>
	<path class="st0" d="M619.81,594.83v17.82c0,3.45-0.78,6-2.33,7.66s-3.9,2.49-7.04,2.49c-1.73,0-3.38-0.28-4.93-0.83
		s-2.82-1.32-3.79-2.29l1.28-2.08c0.9,0.87,2,1.55,3.3,2.04c1.29,0.49,2.65,0.73,4.08,0.73c2.38,0,4.12-0.6,5.24-1.79
		c1.12-1.2,1.67-3.05,1.67-5.57v-2.58c-0.78,1.29-1.81,2.26-3.08,2.93c-1.27,0.67-2.68,1-4.22,1c-1.76,0-3.36-0.42-4.79-1.25
		c-1.44-0.84-2.57-2.01-3.38-3.51c-0.82-1.5-1.23-3.21-1.23-5.11c0-1.9,0.41-3.6,1.23-5.09c0.82-1.49,1.94-2.65,3.37-3.47
		c1.42-0.82,3.03-1.23,4.81-1.23c1.59,0,3.03,0.35,4.31,1.04c1.28,0.69,2.32,1.7,3.1,3.01v-3.9H619.81z M613.9,610.97
		c1.09-0.63,1.94-1.51,2.55-2.64c0.61-1.13,0.91-2.42,0.91-3.86c0-1.44-0.3-2.72-0.91-3.84s-1.45-1.99-2.53-2.62
		c-1.08-0.63-2.31-0.94-3.69-0.94c-1.35,0-2.57,0.31-3.65,0.93c-1.08,0.62-1.92,1.49-2.53,2.62c-0.61,1.13-0.91,2.42-0.91,3.86
		c0,1.44,0.3,2.73,0.91,3.86c0.61,1.13,1.45,2.01,2.53,2.64c1.08,0.63,2.3,0.95,3.65,0.95C611.58,611.91,612.8,611.6,613.9,610.97z"
		/>
	<path class="st0" d="M629.68,613.97c-1.45-0.89-2.59-2.11-3.42-3.68c-0.83-1.57-1.25-3.34-1.25-5.32c0-1.98,0.42-3.75,1.25-5.32
		c0.83-1.57,1.97-2.79,3.42-3.66c1.45-0.87,3.08-1.31,4.88-1.31c1.8,0,3.43,0.44,4.88,1.31s2.58,2.1,3.4,3.66
		c0.82,1.57,1.23,3.34,1.23,5.32c0,1.98-0.41,3.75-1.23,5.32c-0.82,1.57-1.95,2.8-3.4,3.68s-3.08,1.33-4.88,1.33
		C632.75,615.3,631.13,614.86,629.68,613.97z M638.14,611.89c1.06-0.66,1.88-1.59,2.48-2.8c0.59-1.21,0.89-2.58,0.89-4.13
		s-0.3-2.92-0.89-4.13c-0.59-1.21-1.42-2.14-2.48-2.8c-1.06-0.66-2.25-0.98-3.58-0.98c-1.33,0-2.52,0.33-3.58,0.98
		c-1.06,0.66-1.89,1.59-2.49,2.8c-0.61,1.21-0.91,2.58-0.91,4.13s0.3,2.92,0.91,4.13c0.61,1.21,1.44,2.14,2.49,2.8
		c1.06,0.66,2.25,0.98,3.58,0.98C635.89,612.88,637.08,612.55,638.14,611.89z"/>
	<path class="st0" d="M652.04,613.99c-1.46-0.87-2.61-2.1-3.44-3.68c-0.83-1.58-1.25-3.36-1.25-5.34c0-1.98,0.42-3.75,1.25-5.32
		c0.83-1.57,1.98-2.79,3.44-3.66s3.12-1.31,4.97-1.31c1.62,0,3.06,0.34,4.33,1.02c1.27,0.68,2.27,1.68,3.01,2.99l-1.89,1.39
		c-0.62-1-1.4-1.75-2.35-2.26c-0.95-0.5-1.98-0.75-3.1-0.75c-1.35,0-2.57,0.33-3.65,0.98c-1.08,0.66-1.92,1.59-2.53,2.8
		c-0.61,1.21-0.91,2.58-0.91,4.13c0,1.57,0.3,2.95,0.91,4.15c0.61,1.2,1.45,2.12,2.53,2.78c1.08,0.66,2.3,0.98,3.65,0.98
		c1.12,0,2.15-0.24,3.1-0.73c0.95-0.49,1.73-1.23,2.35-2.24l1.89,1.39c-0.74,1.31-1.75,2.31-3.03,2.99
		c-1.28,0.68-2.72,1.02-4.31,1.02C655.15,615.3,653.5,614.87,652.04,613.99z"/>
	<path class="st0" d="M669.26,589.81c-0.36-0.39-0.54-0.85-0.54-1.39c0-0.51,0.18-0.96,0.54-1.35s0.79-0.58,1.32-0.58
		c0.52,0,0.96,0.19,1.32,0.56c0.36,0.37,0.53,0.82,0.53,1.33c0,0.57-0.18,1.04-0.53,1.43c-0.36,0.39-0.8,0.58-1.32,0.58
		C670.06,590.39,669.62,590.2,669.26,589.81z M669.3,594.83h2.53v20.29h-2.53V594.83z"/>
	<path class="st0" d="M681.66,613.97c-1.45-0.89-2.59-2.11-3.42-3.68c-0.83-1.57-1.25-3.34-1.25-5.32c0-1.98,0.42-3.75,1.25-5.32
		c0.83-1.57,1.97-2.79,3.42-3.66c1.45-0.87,3.08-1.31,4.88-1.31c1.8,0,3.43,0.44,4.88,1.31s2.58,2.1,3.4,3.66
		c0.82,1.57,1.23,3.34,1.23,5.32c0,1.98-0.41,3.75-1.23,5.32c-0.82,1.57-1.95,2.8-3.4,3.68s-3.08,1.33-4.88,1.33
		C684.74,615.3,683.11,614.86,681.66,613.97z M690.12,611.89c1.06-0.66,1.88-1.59,2.48-2.8c0.59-1.21,0.89-2.58,0.89-4.13
		s-0.3-2.92-0.89-4.13c-0.59-1.21-1.42-2.14-2.48-2.8c-1.06-0.66-2.25-0.98-3.58-0.98c-1.33,0-2.52,0.33-3.58,0.98
		c-1.06,0.66-1.89,1.59-2.49,2.8c-0.61,1.21-0.91,2.58-0.91,4.13s0.3,2.92,0.91,4.13c0.61,1.21,1.44,2.14,2.49,2.8
		c1.06,0.66,2.25,0.98,3.58,0.98C687.87,612.88,689.07,612.55,690.12,611.89z"/>
	<path class="st0" d="M701.88,614.59c-1.39-0.48-2.48-1.07-3.26-1.79l1.14-2.16c0.78,0.67,1.77,1.21,2.96,1.64
		c1.19,0.42,2.42,0.64,3.71,0.64c1.71,0,2.97-0.29,3.79-0.87c0.82-0.58,1.23-1.39,1.23-2.45c0-0.75-0.23-1.33-0.68-1.75
		c-0.45-0.42-1.02-0.75-1.71-0.96c-0.69-0.22-1.6-0.43-2.74-0.64c-1.52-0.31-2.74-0.62-3.67-0.94c-0.93-0.32-1.72-0.87-2.37-1.64
		s-0.98-1.84-0.98-3.2c0-1.7,0.65-3.08,1.96-4.17c1.31-1.08,3.12-1.62,5.45-1.62c1.21,0,2.42,0.17,3.63,0.52
		c1.21,0.35,2.21,0.8,2.99,1.37l-1.1,2.2c-1.54-1.16-3.38-1.74-5.52-1.74c-1.62,0-2.83,0.31-3.65,0.93s-1.23,1.43-1.23,2.43
		c0,0.77,0.23,1.39,0.7,1.85s1.04,0.8,1.73,1.02c0.69,0.22,1.64,0.44,2.85,0.67c1.5,0.31,2.7,0.62,3.6,0.93
		c0.9,0.31,1.67,0.83,2.32,1.58c0.64,0.75,0.96,1.77,0.96,3.08c0,1.77-0.68,3.18-2.05,4.22c-1.37,1.04-3.26,1.56-5.68,1.56
		C704.73,615.3,703.27,615.07,701.88,614.59z"/>
</g>
<g>
	<g>
		<path class="st0" d="M480.09,496.99c-0.01,5.69-0.02,10.87-0.55,16.04c-2.67,29.75-23.1,53.52-67.27,53.44
			c-44.17-0.08-64.51-23.93-67.07-53.69c-0.51-5.18-0.5-10.35-0.49-16.04l0.21-112.56l22.48,0.04l-0.21,110.49
			c-0.01,5.69-0.02,11.13,0.49,15.79c2.05,22.52,16.92,38.33,44.62,38.38c27.71,0.05,42.63-15.7,44.77-38.21
			c0.53-4.66,0.54-10.09,0.55-15.78l0.21-110.49l22.48,0.04L480.09,496.99z"/>
		<path class="st0" d="M604.83,465.14l-23.52-0.04c-3.11-16.05-13.02-25.64-29.23-25.67c-15.68-0.03-23.02,8.5-23.04,20.4
			c-0.03,13.71,11.46,19.17,30.27,24.12c31.87,8.34,47.01,20.79,46.96,44.08c-0.05,25.88-22.29,38.77-51.56,38.72
			c-28.49-0.05-50.16-13.03-54.28-44.09l23.52,0.04c3.62,19.93,16.42,26.94,32.36,26.97c14.9,0.03,26.93-6.68,26.96-19.87
			c0.02-13.2-9.37-20.2-32.62-26.46c-24.82-6.77-44.66-16.9-44.62-40.97c0.05-25.1,19.42-40.07,47.91-40.02
			C585.04,422.4,602,440.03,604.83,465.14z"/>
		<path class="st0" d="M750.13,614.2l-22.48-0.04l0.14-72.71l-10.48,14.73c-7.85,6.45-22.5,10.83-36.61,10.8
			c-40.51-0.08-62.93-30.14-62.86-70.24c0.1-50.72,32.03-74.2,67.83-74.14c11.5,0.02,26.13,3.41,33.18,9.12l9.12,13.47l0.04-18.89
			l22.48,0.04L750.13,614.2z M727.88,496.16l0.01-7.5c0.07-35.45-22.38-48.95-42.25-48.99c-24.31-0.05-43.16,18.55-43.23,54.52
			c-0.06,31.05,14.01,55.66,41.71,55.71C707.13,549.95,727.8,535.49,727.88,496.16z"/>
		<path class="st0" d="M855.59,544.01l-7.61,14.74c-9.42,6.45-21.45,8.5-34.78,8.47c-25.09-0.05-44.67-13.8-44.62-39.16
			c0.06-31.05,23.61-47.05,77.98-46.95l8.89,0.02l0.01-3.62c0.01-5.95,0.02-11.38-0.49-16.56c-1.02-12.68-8.32-20.97-26.88-21.01
			c-18.82-0.04-28.25,10.04-29.85,28.92l-23.52-0.04c2.15-29.24,22.83-46.02,53.41-45.96c32.93,0.06,46.76,13.8,49.07,36.32
			c0.51,5.43,0.76,12.16,0.75,18.11l-0.1,51.49c-0.02,10.35,0.49,19.67,2.55,34.94l-22.48-0.04L855.59,544.01z M855.39,511.67
			l0.03-13.97c-38.15-2.92-62.21,5.06-62.26,28.6c-0.03,16.56,10.67,23.83,27.66,23.86C841.73,550.2,855.35,536.51,855.39,511.67z"
			/>
		<path class="st0" d="M961.91,575.53c-11.29,28.96-26.22,42.65-48.7,42.6c-4.97-0.01-8.1-0.02-11.5-0.54l0.03-18.11
			c3.4,0.26,5.75,0.27,8.1,0.27c13.85,0.03,23.01-5.91,30.1-24.01l1.84-4.91L886.92,426.6l25.35,0.05l41.07,120.66l41.26-120.5
			l24.57,0.05L961.91,575.53z"/>
	</g>
</g>
<path class="st0" d="M147.66,470.78c-0.06,0.1-0.12,0.19-0.18,0.29c-8.58,14-11.21,28.81-11.86,43.87
	c-0.29,6.66-0.19,13.37-0.05,20.08c0.04,1.82,0.08,3.64,0.12,5.45c0.02,0.88,0.04,1.77,0.05,2.65c0.43,23.96-5.8,32.35-9.78,35.26
	c-1.54,1.13-3.73,0.58-4.52-1.17c-3.28-7.27-11.17-28.79-5.62-58.11c0.57-3.03,1.28-6.13,2.17-9.31l0,0
	c0.29-1.06,0.6-2.13,0.93-3.21c1.89-6.17,4.17-11.79,6.73-16.89c4.08-8.14,8.84-14.97,13.77-20.66l1.94-1.88
	c1.23-10.73,6.43-23.16,6.43-23.16c5.5-13.5,19.3-32.59,40.19-43.71c3.32-1.76,7.35-1.67,10.52,0.36
	c12.32,7.9,15.75,20.78,14.57,30.87c-0.85,7.32-4.26,13.07-6.28,15.94c-1.45,2.05-2.64,4.27-3.58,6.59
	c-1.16,2.87-2.09,5.86-2.37,8.58c-5.72,54.88,60.19,73.43,85.95,37.09c22.5-31.75,1.09-57.48-3.71-62.58
	c-0.26-0.28-0.71-0.03-0.63,0.34c2.28,11.77-2.62,22.9-4.33,26.31c-0.17,0.33-0.65,0.23-0.69-0.13
	c-4.6-39.41-32.43-58.29-41.69-63.53c-0.41-0.23-0.15-0.86,0.32-0.74c33.13,8.58,51.34,22.73,54.97,25.76
	c0.24,0.2,0.59-0.01,0.54-0.31l-1.76-11.57c-0.04-0.27,0.25-0.47,0.49-0.32c30.54,18.94,51.81,68.22,22.18,113.74
	c-25.51,39.19-68.88,38.3-81.23,36.3c-29.73-4.82-49.61-26.81-49.61-26.81c0,0,0,0,0,0c-19.52-23.64-22.43-47.1-20.59-64.43
	c-0.03,0.01,0.56-1.91-0.41-4.23c-0.53-1.26-1.46-2.18-2.2-2.75c-0.52-0.4-1.29-0.17-1.5,0.46c-12.68,38.24,4.3,62.72,22.37,87.88
	c17.93,24.97,18.03,37.56,16.58,42.77c-0.48,1.71-2.48,2.46-3.97,1.49c-8.6-5.6-36.79-26.71-45.26-67.76
	c-4.53-21.92-1.13-42.32,3.89-56.97l0.15-0.43c0.24-0.78-0.12-1.64-0.88-2c-0.76-0.36-1.66-0.1-2.11,0.59L147.66,470.78z"/>
</svg>
