<svg id="Capa_1" data-name="Capa 1" xmlns="http://www.w3.org/2000/svg" viewBox="0 0 923 923"><defs><style>.cls-1{fill:none;}.cls-2{fill:#fff;}</style></defs><rect class="cls-1" width="923" height="923" rx="24.22"/><path class="cls-2" d="M646.09,319.89a18.81,18.81,0,0,0-18.81-18.81h0a11.39,11.39,0,0,0-1.31.13H476a11.39,11.39,0,0,0-1.31-.13H459.34a11.39,11.39,0,0,0-1.31.13h-.93a9,9,0,0,0-8.87,7.33,12,12,0,0,0-.9,4.55V582a11.94,11.94,0,0,0,2.69,7.5,9,9,0,0,0,6,4,12.2,12.2,0,0,0,3.34.53h15.29a12.18,12.18,0,0,0,2.82-.36H623.83a8.85,8.85,0,0,1,1.7.19,9.35,9.35,0,0,0,1.75.17h8.47a10.3,10.3,0,0,0,5.88-1.85,9.08,9.08,0,0,0,2.62-2.62,10.26,10.26,0,0,0,1.84-5.87ZM557.18,493.7H541.81a16,16,0,0,0-15.94,16v42.45a8.47,8.47,0,0,1-8.47,8.47H495.11a8.47,8.47,0,0,1-8.47-8.47V472.54a8.47,8.47,0,0,1,8.47-8.47H608.47a8.47,8.47,0,0,1,8.47,8.47V552.1a8.47,8.47,0,0,1-8.47,8.47H581.59a8.47,8.47,0,0,1-8.47-8.47V509.65A16,16,0,0,0,557.18,493.7ZM495.11,393.35H535a8.48,8.48,0,0,1,8.47,8.46v20.73A8.47,8.47,0,0,1,535,431H495.11a8.47,8.47,0,0,1-8.47-8.47V401.81A8.48,8.48,0,0,1,495.11,393.35Zm80.12,0h33.24a8.48,8.48,0,0,1,8.47,8.46v20.73a8.47,8.47,0,0,1-8.47,8.47H575.23a8.47,8.47,0,0,1-8.47-8.47V401.81A8.48,8.48,0,0,1,575.23,393.35Zm33.24-23.26H575.23a8.47,8.47,0,0,1-8.47-8.47V342.74a8.48,8.48,0,0,1,8.47-8.46h33.24a8.48,8.48,0,0,1,8.47,8.46v18.88A8.47,8.47,0,0,1,608.47,370.09Zm-73.44,0H495.11a8.47,8.47,0,0,1-8.47-8.47V342.74a8.48,8.48,0,0,1,8.47-8.46H535a8.48,8.48,0,0,1,8.47,8.46v18.88A8.47,8.47,0,0,1,535,370.09Z" transform="translate(-0.91 -0.91)"/><path class="cls-2" d="M813.92,310.83c-12.61-28.26-31.46-52.32-53.33-69.1a2.5,2.5,0,0,0-4,2.17l1.65,21a1.61,1.61,0,0,1-2.7,1.32c-10.45-9.74-48.12-41.64-115.83-65.52a1.71,1.71,0,0,0-1.59,3c23.36,16.79,75.63,63.36,80.85,146.59a2.07,2.07,0,0,0,3.89.87c5.49-10.2,15.13-32.06,12.41-56a.93.93,0,0,1,.86-1h0a220.49,220.49,0,0,1,48.16,166.61C769.81,579.41,662.1,665.69,543.17,653.92c-123.06-12.18-211.93-122.64-198-245.07a221.22,221.22,0,0,1,4.52-25.94c1.13-4.79,2.45-9.5,3.88-14.16.7-2.18,1.44-4.47,2.22-6.82.53-1.55,1-3.11,1.61-4.64.06-.16.12-.32.17-.48.71-1.9,1.47-3.77,2.23-5.64a58,58,0,0,1,3.12-6.39c3.56-6.19,8-10.68,13.35-15.46,7.94-7.14,21.83-21.86,29.29-42.87,10.31-29.09,8.89-69.54-22.27-101.29a31.28,31.28,0,0,0-30.35-8.33c-69.68,18.68-123.7,66.06-149.19,102.41,0,0-23.8,33.3-34.71,64.26l-7,4.25a302.23,302.23,0,0,0-54.77,51.89A328.88,328.88,0,0,0,75.9,445.11c-1.7,3-3.36,5.93-4.93,8.87h0q-7.15,13.25-12.72,26.12C22.14,562.88,30.71,631.72,35.52,655.74a9.27,9.27,0,0,0,10.86,7.34,10,10,0,0,0,1.86-.57c13.77-6,37.84-26.66,52.75-97.78.55-2.61,1.1-5.24,1.64-7.87q1.68-8.1,3.35-16.23c4.12-20,8.36-39.92,13.73-59.45,12.12-44.15,29.92-86.25,64.82-121.91l.72-.74.08-.08a5.08,5.08,0,0,1,7.91,6.21l-.74,1.18c-24.8,40-48.65,98.13-50.08,166.1-2.67,126.93,66.1,208.43,88,231.12a8.21,8.21,0,0,0,11.6.19,8.4,8.4,0,0,0,1.57-2.12c7.82-14.72,15.5-52.19-20.37-137.48-36.45-86.71-67.34-164.74-4.09-269.34,1.1-1.82,4.82-3.06,8,2.57,5.75,10.09,4.33,14.56,4.09,15.39-7.79,23.73-12.56,53.66-12.37,86.53q0,7.74.28,15.39a313.34,313.34,0,0,0,12.33,74.28q3.53,12,8,23.66c.38,1,.75,2,1.14,3.06h.07c42.39,108,142.86,188.87,267.26,199.66,170.68,14.8,323-110.72,341.44-281A314.52,314.52,0,0,0,813.92,310.83Z" transform="translate(-0.91 -0.91)"/></svg>