<svg id="Capa_1" data-name="Capa 1" xmlns="http://www.w3.org/2000/svg" viewBox="0 0 924.81 924.81"><defs><style>.cls-1{fill:#ef6a00;stroke:#ef6a00;stroke-miterlimit:10;stroke-width:1.81px;}.cls-2{fill:#fff;}</style></defs><rect class="cls-1" x="0.91" y="0.91" width="923" height="923" rx="24.22"/><path class="cls-2" d="M683.68,357.48a18.81,18.81,0,0,0-18.81-18.81h0a11.18,11.18,0,0,0-1.31.13h-150a11.39,11.39,0,0,0-1.31-.13H496.93a11.18,11.18,0,0,0-1.31.13h-.93a9,9,0,0,0-8.87,7.33,12.1,12.1,0,0,0-.9,4.55v64.47s0,.07,0,.11v8.1s0,.07,0,.1V619.58a11.91,11.91,0,0,0,2.69,7.5,9,9,0,0,0,6,4,11.9,11.9,0,0,0,3.34.53h15.29a12,12,0,0,0,2.82-.36H661.42a8.85,8.85,0,0,1,1.7.19,9.19,9.19,0,0,0,1.75.17h8.47a10.27,10.27,0,0,0,5.88-1.85,9.08,9.08,0,0,0,2.62-2.62,10.32,10.32,0,0,0,1.84-5.87ZM594.77,531.29H579.4a16,16,0,0,0-15.94,16v42.45a8.47,8.47,0,0,1-8.47,8.47H532.7a8.47,8.47,0,0,1-8.47-8.47V510.13a8.47,8.47,0,0,1,8.47-8.47H646.06a8.47,8.47,0,0,1,8.47,8.47v79.56a8.47,8.47,0,0,1-8.47,8.47H619.18a8.47,8.47,0,0,1-8.47-8.47V547.24A16,16,0,0,0,594.77,531.29ZM532.7,430.94h39.92a8.47,8.47,0,0,1,8.47,8.46v20.73a8.47,8.47,0,0,1-8.47,8.47H532.7a8.47,8.47,0,0,1-8.47-8.47V439.4A8.47,8.47,0,0,1,532.7,430.94Zm80.12,0h33.24a8.47,8.47,0,0,1,8.47,8.46v20.73a8.47,8.47,0,0,1-8.47,8.47H612.82a8.47,8.47,0,0,1-8.47-8.47V439.4A8.47,8.47,0,0,1,612.82,430.94Zm33.24-23.26H612.82a8.47,8.47,0,0,1-8.47-8.47V380.33a8.47,8.47,0,0,1,8.47-8.46h33.24a8.47,8.47,0,0,1,8.47,8.46v18.88A8.47,8.47,0,0,1,646.06,407.68Zm-73.44,0H532.7a8.47,8.47,0,0,1-8.47-8.47V380.33a8.47,8.47,0,0,1,8.47-8.46h39.92a8.47,8.47,0,0,1,8.47,8.46v18.88A8.47,8.47,0,0,1,572.62,407.68Z" transform="translate(-37.59 -37.59)"/><path class="cls-2" d="M851.51,348.42c-12.61-28.26-31.46-52.32-53.33-69.1a2.5,2.5,0,0,0-4,2.17l1.65,21a1.61,1.61,0,0,1-2.7,1.32c-10.45-9.74-48.12-41.64-115.83-65.52a1.71,1.71,0,0,0-1.59,3c23.36,16.79,75.63,63.36,80.85,146.59a2.07,2.07,0,0,0,3.89.87c5.49-10.2,15.13-32.06,12.41-56a.93.93,0,0,1,.88-1A220.48,220.48,0,0,1,821.9,498.36C807.4,617,699.69,703.28,580.76,691.51c-123.06-12.18-211.93-122.64-198-245.07a221.92,221.92,0,0,1,4.52-25.94c1.13-4.79,2.45-9.5,3.88-14.16.7-2.18,1.44-4.47,2.22-6.82.53-1.55,1-3.11,1.61-4.64.06-.16.12-.32.17-.48.71-1.9,1.47-3.77,2.23-5.64a58.47,58.47,0,0,1,3.12-6.39c3.56-6.19,8-10.68,13.35-15.46,7.94-7.14,21.83-21.86,29.29-42.87,10.31-29.09,8.89-69.54-22.27-101.29a31.28,31.28,0,0,0-30.35-8.33c-69.68,18.68-123.7,66.06-149.19,102.41,0,0-23.8,33.3-34.71,64.26l-7,4.25a302.21,302.21,0,0,0-54.77,51.89,328.82,328.82,0,0,0-31.37,45.47c-1.7,3-3.36,5.93-4.93,8.87v0c-4.77,8.83-9,17.54-12.72,26.12C59.73,600.47,68.3,669.31,73.11,693.33a9.27,9.27,0,0,0,12.72,6.77c13.77-6,37.84-26.66,52.75-97.78.55-2.61,1.1-5.24,1.64-7.87q1.68-8.1,3.35-16.23c4.12-20,8.36-39.92,13.73-59.45,12.12-44.15,29.92-86.25,64.82-121.91l.72-.74.08-.08a5.08,5.08,0,0,1,7.91,6.21l-.74,1.18c-24.8,40-48.65,98.13-50.08,166.1-2.67,126.93,66.1,208.43,88,231.12a8.2,8.2,0,0,0,13.17-1.93C289,784,296.68,746.53,260.81,661.24c-36.45-86.71-67.34-164.74-4.09-269.34,1.1-1.82,4.82-3.06,8,2.57,5.75,10.09,4.33,14.56,4.09,15.39-7.79,23.73-12.56,53.66-12.37,86.53q0,7.74.28,15.39a313.27,313.27,0,0,0,12.33,74.28c2.35,8,5,15.9,8,23.66.38,1,.75,2,1.14,3.06h.07c42.39,108,142.86,188.87,267.26,199.66,170.68,14.8,323-110.72,341.44-281A314.6,314.6,0,0,0,851.51,348.42Z" transform="translate(-37.59 -37.59)"/></svg>