<svg id="Capa_1" data-name="Capa 1" xmlns="http://www.w3.org/2000/svg" viewBox="0 0 923 923"><defs><style>.cls-1{fill:none;}.cls-2{fill:#fff;}</style></defs><rect class="cls-1" width="923" height="923" rx="24.22"/><path class="cls-2" d="M648.52,278.41H492.6c-17.57,0-31.94,18-31.94,40v250c0,22,14.37,40,31.94,40H648.52c17.57,0,31.94-18,31.94-40v-250C680.46,296.41,666.09,278.41,648.52,278.41Zm-123.66,46H627.41c14.71,0,26.75,15.06,26.75,33.48h0a8.53,8.53,0,0,1-8.53,8.53h-139a8.55,8.55,0,0,1-8.54-8.53h0C498.1,339.48,510.14,324.41,524.86,324.41ZM627.41,558.68H524.86c-14.72,0-26.76-15.07-26.76-33.48V439.75a26.81,26.81,0,0,1,26.81-26.81h102.5a26.81,26.81,0,0,1,26.81,26.81V525.2C654.18,543.61,642.14,558.68,627.41,558.68Z" transform="translate(-0.91 -0.91)"/><path class="cls-2" d="M544.86,475.59a18.71,18.71,0,1,0-15.26-15.27A18.7,18.7,0,0,0,544.86,475.59Z" transform="translate(-0.91 -0.91)"/><path class="cls-2" d="M551.32,492.83a18.7,18.7,0,1,0,15.27,15.27A18.69,18.69,0,0,0,551.32,492.83Z" transform="translate(-0.91 -0.91)"/><path class="cls-2" d="M605.41,492.83a18.71,18.71,0,1,0,15.26,15.27A18.7,18.7,0,0,0,605.41,492.83Z" transform="translate(-0.91 -0.91)"/><path class="cls-2" d="M605.41,438.73A18.69,18.69,0,1,0,620.68,454,18.7,18.7,0,0,0,605.41,438.73Z" transform="translate(-0.91 -0.91)"/><path class="cls-2" d="M840.81,310.34c-13-29.19-32.49-54-55.07-71.36a2.58,2.58,0,0,0-4.15,2.24l1.7,21.68a1.67,1.67,0,0,1-2.79,1.37c-10.79-10.06-49.69-43-119.62-67.66a1.76,1.76,0,0,0-1.64,3.08c24.12,17.35,78.11,65.44,83.5,151.38a2.14,2.14,0,0,0,4,.91c5.67-10.57,15.67-33.11,12.83-57.83a1,1,0,0,1,.9-1.07,227.66,227.66,0,0,1,49.77,172.1c-15,122.51-126.22,211.62-249,199.47C434.12,652.07,342.34,538,356.76,411.57a229.41,229.41,0,0,1,4.65-26.79c1.17-4.95,2.53-9.82,4-14.62.72-2.25,1.48-4.62,2.29-7.05.55-1.6,1.08-3.21,1.66-4.79l.18-.5c.73-2,1.52-3.89,2.3-5.82a62,62,0,0,1,3.22-6.61c3.68-6.39,8.3-11,13.79-16,8.2-7.37,22.55-22.57,30.24-44.27,10.66-30,9.18-71.81-23-104.6a32.29,32.29,0,0,0-31.34-8.6c-72,19.28-127.75,68.21-154.07,105.75,0,0-24.58,34.4-35.85,66.37l-7.24,4.39A312.46,312.46,0,0,0,111,402a339.29,339.29,0,0,0-32.39,47c-1.76,3.07-3.47,6.13-5.09,9.16h0c-4.92,9.12-9.27,18.11-13.13,27C23.14,570.63,32,641.72,37,666.53a9.56,9.56,0,0,0,11.19,7.59,9.44,9.44,0,0,0,1.94-.59c14.22-6.17,39.08-27.53,54.48-101q.86-4,1.69-8.12c1.16-5.58,2.3-11.18,3.46-16.77,4.26-20.62,8.63-41.22,14.18-61.39,12.51-45.58,30.9-89.06,66.93-125.84l.75-.77.09-.08a5.24,5.24,0,0,1,8.16,6.41l-.76,1.22c-25.61,41.3-50.25,101.33-51.72,171.53-2.76,131,68.26,215.21,90.89,238.69a8.47,8.47,0,0,0,13.6-2c8-15.21,16-53.9-21-142-37.65-89.55-69.55-170.13-4.24-278.14,1.15-1.89,5-3.17,8.29,2.64,5.94,10.42,4.47,15,4.23,15.9-8.05,24.51-13,55.41-12.78,89.36q0,8,.29,15.9a323.29,323.29,0,0,0,12.73,76.7c2.42,8.28,5.2,16.42,8.25,24.44.39,1,.76,2.1,1.17,3.15h.07c43.74,111.45,147.5,195,276,206.16,176.26,15.29,333.6-114.34,352.6-290.23A325,325,0,0,0,840.81,310.34Z" transform="translate(-0.91 -0.91)"/></svg>