<svg id="Capa_1" data-name="Capa 1" xmlns="http://www.w3.org/2000/svg" viewBox="0 0 923 923"><defs><style>.cls-1{fill:none;}.cls-2{fill:#fff;}</style></defs><rect class="cls-1" width="923" height="923" rx="24.22"/><path class="cls-2" d="M622.87,234.51c-2.37,0-8.67-.18-17.83,49.14-4.66,25.09-7.84,51.33-8,58.39L594.55,592c0,4.56,2.65,8.27,6,8.28l21.3.12c3.37,0,6.15-3.62,6.24-8.15l6.8-340.73C635.13,242.26,629.71,234.64,622.87,234.51Z" transform="translate(-0.91 -0.91)"/><path class="cls-2" d="M575.16,242.75a7.73,7.73,0,0,0-7.57-7.89h-.35c-4.23.11-7.46,3.86-7.55,8.08l-1.18,59h0l-.07,3.69a8.62,8.62,0,0,1-8.78,8.44l-2.35-.05a8.69,8.69,0,0,1-8.5-8.5l1.26-63.08a8,8,0,0,0-6.19-8.17,7.75,7.75,0,0,0-9.26,7.43l-1.21,59.58h0l-.07,3.67a8.65,8.65,0,0,1-8.8,8.46l-2.34-.05a8.69,8.69,0,0,1-8.5-8.51l1.26-63c.08-4.22-3-8.1-7.22-8.37a7.73,7.73,0,0,0-8.22,7.21c0,.12,0,.23,0,.35l-1.18,59.54h-.09L488,311.64a35.34,35.34,0,0,0,24.18,34.23c0,.31-.06.62-.07.94l-4.82,242.6a8.28,8.28,0,0,0,8.11,8.44l23.06.46a8.28,8.28,0,0,0,8.44-8.11l4.88-244.62c-.26-3.37-.12-.6-.12-.6,13.22-6.2,21.89-20.36,22.2-35.94l.13-6.77h0Z" transform="translate(-0.91 -0.91)"/><path class="cls-2" d="M828.66,298c-12.75-28.58-31.81-52.91-53.93-69.89a2.53,2.53,0,0,0-3.55.47,2.56,2.56,0,0,0-.51,1.73l1.66,21.24a1.63,1.63,0,0,1-2.73,1.33C759,243,720.93,210.75,652.45,186.6a1.73,1.73,0,0,0-1.61,3c23.62,17,76.5,64.09,81.78,148.26a2.1,2.1,0,0,0,3.93.89c5.55-10.32,15.3-32.43,12.55-56.64a1,1,0,0,1,.89-1.05,223,223,0,0,1,48.73,168.55c-14.66,120-123.61,207.27-243.9,195.36C430.35,632.66,340.47,521,354.59,397.1a225.85,225.85,0,0,1,4.58-26.23c1.14-4.85,2.48-9.61,3.92-14.32.71-2.21,1.45-4.52,2.25-6.9.53-1.57,1.05-3.15,1.63-4.7,0-.16.11-.32.17-.48.71-1.92,1.48-3.81,2.25-5.71a64.22,64.22,0,0,1,3.15-6.46c3.61-6.26,8.14-10.8,13.51-15.63,8-7.23,22.08-22.12,29.62-43.36,10.43-29.42,9-70.34-22.52-102.45a31.61,31.61,0,0,0-30.69-8.42C292,181.32,237.34,229.25,211.56,266c0,0-24.07,33.69-35.11,65l-7.09,4.3A305.75,305.75,0,0,0,114,387.79a331.15,331.15,0,0,0-31.72,46c-1.72,3-3.4,6-5,9h0c-4.82,8.93-9.08,17.74-12.86,26.41-36.54,83.71-27.87,153.34-23,177.64a9.36,9.36,0,0,0,11,7.41,8.69,8.69,0,0,0,1.88-.57c13.93-6,38.27-27,53.36-98.9.55-2.64,1.11-5.3,1.65-8,1.14-5.45,2.25-10.94,3.39-16.41,4.17-20.2,8.46-40.38,13.89-60.13,12.26-44.65,30.26-87.23,65.55-123.3l.74-.75.08-.08a5.13,5.13,0,0,1,8,6.28l-.74,1.19c-25.08,40.46-49.21,99.25-50.65,168-2.74,128.42,66.81,210.83,89,233.83a8.31,8.31,0,0,0,11.74.16,8.44,8.44,0,0,0,1.59-2.16c7.84-14.9,15.66-52.78-20.62-139C194.35,526.7,163.11,447.78,227.08,342c1.12-1.84,4.87-3.1,8.12,2.6,5.81,10.2,4.38,14.73,4.13,15.57-7.88,24-12.7,54.27-12.51,87.52q0,7.81.29,15.56a315.93,315.93,0,0,0,12.47,75.13c2.37,8.11,5.08,16.08,8.07,23.93.38,1,.75,2.06,1.15,3.09h.07c42.88,109.14,144.54,191,270.31,201.9,172.63,15,326.71-112,345.34-284.25A318.14,318.14,0,0,0,828.66,298Z" transform="translate(-0.91 -0.91)"/></svg>