<svg id="Capa_1" data-name="Capa 1" xmlns="http://www.w3.org/2000/svg" viewBox="0 0 924.81 924.81"><defs><style>.cls-1{fill:#ef6a00;stroke:#ef6a00;stroke-miterlimit:10;stroke-width:1.81px;}.cls-2{fill:#fff;}</style></defs><rect class="cls-1" x="0.91" y="0.91" width="923" height="923" rx="24.22"/><path class="cls-2" d="M660.46,272.1c-2.37-.05-8.67-.18-17.83,49.14-4.66,25.09-7.84,51.33-8,58.39l-2.49,249.91c0,4.56,2.65,8.27,6,8.28l21.3.12c3.37,0,6.15-3.62,6.24-8.15l6.8-340.73C672.72,279.85,667.3,272.23,660.46,272.1Z" transform="translate(-37.59 -37.59)"/><path class="cls-2" d="M612.75,280.34a7.73,7.73,0,0,0-7.92-7.89c-4.23.11-7.46,3.86-7.55,8.08l-1.18,59h0l-.07,3.69a8.62,8.62,0,0,1-8.78,8.44l-2.35-.05a8.69,8.69,0,0,1-8.5-8.5l1.26-63.08a8,8,0,0,0-6.19-8.17,7.74,7.74,0,0,0-9.26,7.43L561,338.87h0l-.07,3.67a8.65,8.65,0,0,1-8.8,8.46l-2.34-.05a8.69,8.69,0,0,1-8.5-8.51l1.26-63c.08-4.22-3-8.1-7.22-8.37a7.73,7.73,0,0,0-8.23,7.56l-1.18,59.54h-.09l-.22,11.06a35.34,35.34,0,0,0,24.18,34.23c0,.31-.06.62-.07.94L544.9,627a8.28,8.28,0,0,0,8.11,8.44l23.06.46a8.28,8.28,0,0,0,8.44-8.11l4.88-244.62c-.26-3.37-.12-.6-.12-.6,13.22-6.2,21.89-20.36,22.2-35.94l.13-6.77h0Z" transform="translate(-37.59 -37.59)"/><path class="cls-2" d="M866.25,335.57c-12.75-28.58-31.81-52.91-53.93-69.89a2.53,2.53,0,0,0-4.06,2.2l1.66,21.24a1.63,1.63,0,0,1-2.73,1.33c-10.57-9.85-48.67-42.11-117.15-66.26a1.73,1.73,0,0,0-1.61,3c23.62,17,76.5,64.09,81.78,148.26a2.1,2.1,0,0,0,3.93.89c5.55-10.32,15.3-32.43,12.55-56.64a1,1,0,0,1,.89-1.05,223,223,0,0,1,48.73,168.55c-14.66,120-123.61,207.27-243.9,195.36-124.47-12.31-214.35-124-200.23-247.87a224.43,224.43,0,0,1,4.58-26.23c1.14-4.85,2.48-9.61,3.92-14.32.71-2.21,1.45-4.52,2.25-6.9.53-1.57,1.05-3.15,1.63-4.7.05-.16.11-.32.17-.48.71-1.92,1.48-3.81,2.25-5.71a62.66,62.66,0,0,1,3.15-6.46c3.61-6.26,8.14-10.8,13.51-15.63,8-7.23,22.08-22.12,29.62-43.36,10.43-29.42,9-70.34-22.52-102.45a31.62,31.62,0,0,0-30.69-8.42c-70.49,18.88-125.12,66.81-150.9,103.57,0,0-24.07,33.69-35.11,65l-7.09,4.3a306,306,0,0,0-55.4,52.48,332,332,0,0,0-31.72,46c-1.72,3-3.4,6-5,9v0c-4.82,8.93-9.08,17.74-12.86,26.41C65.43,590.5,74.1,660.13,79,684.43a9.37,9.37,0,0,0,12.86,6.84c13.93-6,38.27-27,53.36-98.9.55-2.64,1.11-5.3,1.65-8,1.14-5.45,2.25-10.94,3.39-16.41,4.17-20.2,8.46-40.38,13.89-60.13,12.26-44.65,30.26-87.23,65.55-123.3l.74-.75.08-.08a5.13,5.13,0,0,1,8,6.28l-.74,1.19c-25.08,40.46-49.21,99.25-50.65,168C184.39,687.59,253.94,770,276.1,793a8.3,8.3,0,0,0,13.33-2c7.84-14.9,15.66-52.78-20.62-139-36.87-87.71-68.11-166.63-4.14-272.42,1.12-1.84,4.87-3.1,8.12,2.6,5.81,10.2,4.38,14.73,4.13,15.57-7.88,24-12.7,54.27-12.51,87.52q0,7.81.29,15.56a315.77,315.77,0,0,0,12.47,75.13c2.37,8.11,5.08,16.08,8.07,23.93.38,1,.75,2.06,1.15,3.09h.07C329.34,712.12,431,794,556.77,804.88c172.63,15,326.71-112,345.34-284.25A318.14,318.14,0,0,0,866.25,335.57Z" transform="translate(-37.59 -37.59)"/></svg>